<svg width="237" height="46" viewBox="0 0 237 46" fill="none" xmlns="http://www.w3.org/2000/svg">
<path fill-rule="evenodd" clip-rule="evenodd" d="M181.393 9.04578C182.516 9.01172 184.9 9.14795 186.671 9.31824C189.055 9.55664 190.383 9.89721 191.779 10.5784C192.8 11.0892 194.23 12.0769 194.946 12.7921C195.627 13.5073 196.75 15.2101 197.397 16.5724C198.521 18.8883 198.589 19.1948 198.589 22.6006C198.589 24.5759 198.385 26.7896 198.18 27.5389C197.976 28.2881 197.295 29.6845 196.682 30.604C196.103 31.5576 195.184 32.7156 194.639 33.2264C194.094 33.7373 192.8 34.5206 191.779 34.9974C190.757 35.4742 188.748 36.0191 187.352 36.2575C185.785 36.4959 182.789 36.564 179.69 36.4619C176.285 36.3483 174.015 36.1099 172.88 35.7467C171.926 35.4061 170.7 34.8952 170.156 34.5547C169.611 34.2141 168.385 33.0902 167.499 32.1025C166.546 31.0127 165.558 29.4801 165.184 28.3903C164.605 26.8237 164.503 25.8701 164.605 22.4303C164.707 18.8202 164.809 18.1391 165.627 16.3681C166.171 15.3123 167.295 13.7116 168.18 12.8602C169.1 12.0088 170.564 10.9189 171.518 10.4762C172.641 9.93127 174.242 9.55664 176.285 9.3523C177.953 9.21607 180.269 9.04578 181.393 9.04578V9.04578ZM174.65 14.2225C174.14 14.3247 173.186 14.9377 172.505 15.5507C171.79 16.1978 171.041 17.3898 170.632 18.4456C170.19 19.6376 169.985 21.102 169.985 22.9411C169.985 24.9165 170.19 26.2106 170.734 27.641C171.143 28.6968 171.79 29.8888 172.199 30.2634C172.607 30.6381 173.833 31.2171 174.957 31.5236C176.353 31.9663 178.158 32.1366 180.882 32.1366C183.027 32.1366 185.479 31.9663 186.33 31.796C187.182 31.5917 188.203 31.3873 188.646 31.2852C189.054 31.183 189.872 30.7062 190.451 30.1953C191.064 29.6504 191.847 28.6287 192.221 27.8794C192.63 27.0621 192.971 25.5295 193.073 23.9629C193.175 22.1238 193.073 20.8296 192.664 19.3651C192.324 18.2412 191.847 16.9811 191.574 16.5724C191.302 16.1297 190.28 15.3804 189.327 14.8696C187.59 13.9841 187.25 13.95 181.904 13.8479C178.805 13.8138 176.149 13.8138 175.944 13.8819C175.74 13.9841 175.195 14.1203 174.684 14.2225H174.65ZM87.8853 9.31824L87.715 12.8602L83.2882 16.7427C80.8705 18.8543 78.1804 21.2723 77.3291 22.0557C76.4778 22.873 73.8217 25.2911 71.3699 27.4367C66.9772 31.3192 66.9431 31.3533 67.9647 31.5917C68.5436 31.6939 73.0385 31.796 78.0101 31.796C84.8546 31.796 87.1361 31.8982 87.4766 32.2047C87.715 32.4431 87.8853 33.2605 87.9193 34.0097C87.9193 34.759 87.715 35.5423 87.4766 35.7807C87.1361 36.0872 83.0158 36.1894 71.8807 36.2235C59.3835 36.2916 56.6934 36.2235 56.5912 35.8488C56.5572 35.5764 56.5572 35.0655 56.6934 34.6909C56.7956 34.3163 58.6684 32.4091 60.8818 30.4337C63.0952 28.4584 67.3518 24.7121 70.3484 22.0557C73.345 19.3992 76.648 16.4703 79.5425 13.7457H68.0669C58.1236 13.7457 56.5231 13.6776 56.3869 13.2348C56.2848 12.9624 56.2167 12.2472 56.1826 11.6682C56.1826 11.0892 56.3188 10.34 56.5231 9.96533C56.8977 9.3523 57.4425 9.31824 87.8853 9.31824ZM110.36 9.31824C111.96 9.31824 113.424 9.45447 113.629 9.5907C113.833 9.72693 114.582 10.7146 115.263 11.8044C115.944 12.8602 116.489 13.8138 116.489 13.916C116.489 14.0181 117.749 16.2659 119.247 18.9564C120.78 21.6129 122.346 24.3375 122.721 24.9846C123.061 25.6317 124.56 28.3222 126.058 30.9446C127.522 33.567 128.748 35.917 128.748 36.1554C128.748 36.4278 128.067 36.564 126.466 36.53C125.172 36.4959 123.81 36.3938 123.402 36.2916C122.925 36.1213 122.21 35.2018 121.393 33.6692C120.712 32.375 119.486 30.0932 118.668 28.6628C117.204 26.0744 117.136 26.0063 116.251 26.3809C115.706 26.5853 111.177 28.8671 106.103 31.4895C97.3177 36.0191 96.807 36.2575 94.3552 36.4619C92.925 36.564 91.6991 36.53 91.5629 36.3597C91.4267 36.1894 92.278 34.3503 93.4698 32.3069C94.6617 30.2635 97.1815 25.8701 99.0544 22.6006C100.927 19.3311 103.345 15.142 104.435 13.3029C105.524 11.4979 106.648 9.8291 106.955 9.65881C107.227 9.48853 108.759 9.3523 110.36 9.31824V9.31824ZM103.379 25.6657C102.119 28.0157 100.893 30.1272 100.689 30.3656C100.485 30.604 100.451 30.9105 100.587 31.0468C100.723 31.183 101.336 31.0127 101.949 30.7062C102.562 30.3997 104.435 29.4801 106.103 28.6968C107.806 27.9135 110.632 26.5853 112.403 25.802C114.174 24.9846 115.672 24.2013 115.74 24.065C115.774 23.9288 114.889 22.0216 113.765 19.876C112.607 17.7304 111.62 15.6869 111.518 15.3804C111.427 14.9717 111.041 14.7674 110.36 14.7674C109.44 14.7674 109.202 15.0399 107.533 18.105C106.512 19.91 104.639 23.3158 103.379 25.6657V25.6657ZM209.213 9.48853L211.563 12.5537C212.857 14.2565 215.309 17.4579 217.011 19.7057C218.714 21.9535 220.212 23.9629 220.349 24.1331C220.519 24.3375 221.098 23.7585 221.745 22.7709C222.358 21.8513 224.026 19.6035 225.422 17.8326C226.818 16.0616 228.793 13.5413 229.849 12.2131C230.905 10.8849 231.892 9.72693 232.097 9.5907C232.267 9.45447 233.459 9.31824 237 9.31824L236.864 36.3938L234.65 36.4959C233.152 36.53 232.335 36.4278 232.165 36.1554C232.028 35.917 231.994 33.7373 232.097 31.2852C232.199 28.833 232.165 24.7121 231.756 17.3898L227.057 23.3158C224.469 26.5853 222.017 29.6845 221.608 30.2294C221.064 30.9446 220.689 31.1489 220.178 30.9787C219.804 30.8424 217.692 28.3562 215.479 25.3933C213.266 22.4643 210.95 19.4332 209.145 17.3217V26.3469C209.145 34.4525 209.077 35.4402 208.566 35.8829C208.192 36.2235 207.272 36.3938 203.833 36.3938L203.697 23.5201C203.629 14.0522 203.697 10.4762 204.003 9.96533C204.344 9.38635 204.684 9.31824 209.213 9.48853V9.48853ZM159.906 9.48853L160.076 13.7457L139.815 13.916L138.283 14.8015C137.159 15.4485 136.512 16.1637 135.797 17.526C135.286 18.5478 134.877 19.7738 134.877 21.2383H156.671V22.6006C156.671 23.3498 156.603 24.2013 156.501 24.4737C156.364 24.9165 154.832 24.9846 145.604 24.9846C139.713 24.9846 134.877 25.0867 134.877 25.223C134.877 25.3933 135.048 26.0744 135.218 26.7556C135.422 27.4708 136.137 28.6968 136.852 29.4461C137.533 30.2294 138.589 31.1149 139.134 31.4214C140.019 31.8982 141.552 31.9663 159.906 31.9663L160.076 36.2235H149.622C139.543 36.2235 139.066 36.1894 137.261 35.4402C136.239 35.0315 134.877 34.2822 134.23 33.8395C133.583 33.3627 132.494 32.1366 131.779 31.1149C131.098 30.0932 130.246 28.3222 129.94 27.1983C129.463 25.6317 129.395 24.4056 129.497 21.9194C129.633 19.8419 129.94 18.0028 130.382 16.8108C130.893 15.4826 131.676 14.3928 133.073 13.0305C134.162 11.9747 135.422 10.9189 135.899 10.6805C136.376 10.4421 137.363 10.0334 138.112 9.79504C139.1 9.48853 142.233 9.38635 159.906 9.48853Z" fill="#FEFDFA"/>
<rect width="45.2044" height="45.2044" rx="11" fill="#39F265"/>
<path fill-rule="evenodd" clip-rule="evenodd" d="M32.2405 14.2289L32.1343 16.3846L29.4332 18.7446C27.958 20.0282 26.3165 21.4981 25.797 21.9742C25.2775 22.4712 23.6568 23.9411 22.1608 25.2453C19.4804 27.6054 19.4597 27.6261 20.0822 27.7719C20.435 27.8345 23.1749 27.8998 26.2055 27.9032C30.3777 27.9079 31.7683 27.9717 31.9757 28.1585C32.1208 28.3037 32.2241 28.8014 32.2443 29.2574C32.2438 29.7135 32.1187 30.1901 31.9732 30.335C31.7655 30.5213 29.2538 30.5807 22.4661 30.5938C14.8482 30.6266 13.2084 30.5833 13.1464 30.3552C13.1258 30.1894 13.1262 29.8784 13.2094 29.6505C13.272 29.4226 14.4149 28.263 15.7655 27.0623C17.1161 25.8615 19.7133 23.5842 21.5418 21.9694C23.3702 20.3546 25.3857 18.5742 27.1519 16.9179L20.1568 16.91C14.0956 16.9031 13.1201 16.8606 13.0374 16.591C12.9753 16.4251 12.9343 15.9898 12.9139 15.6373C12.9143 15.2849 12.9979 14.829 13.1227 14.6011C13.3514 14.2283 13.6835 14.2079 32.2405 14.2289Z" fill="#111111"/>
</svg>
